<svg xmlns="http://www.w3.org/2000/svg" version="1.1" xmlns:xlink="http://www.w3.org/1999/xlink" xmlns:svgjs="http://svgjs.dev/svgjs" width="100%" height="100%" viewBox="0 0 1000 600"><rect width="1000" height="600" x="0" y="0" fill="#08abba"/><g><rect width="333.3333333333333" height="333.3333333333333" y="259.460661479036" fill="#d2dbdf" transform="matrix(0.5268960539739145,0,0,0.5268960539739145,0,75.47518849488458)" x="237.23844909667966"/><path d="M340.99906019045153 416.4550856083736L402.7671988682393 501.1273286140137L380.50499300562615 501.1273286140137L327.34412920263634 429.497295333915L311.99692044282705 442.94798590097224L311.99692044282705 501.1273286140137L293.0900929212368 501.1273286140137L293.0900929212368 351.1273281688049L311.99692044282705 351.1273281688049L311.99692044282705 425.09153768613703Q318.2991962833571 417.94312295960987 324.8348897476105 410.7947082330827Q331.3414060088985 403.64629350655554 337.84792227018653 396.4978787800284L337.84792227018653 396.4978787800284L378.4042343921161 351.1273281688049L400.4621998339714 351.1273281688049L340.99906019045153 416.4550856083736ZM514.7201266465443 484.3212597059335L514.7201266465443 501.1273286140137L410.73257527779816 501.1273286140137L410.73257527779816 486.8304991609594L489.7444409081474 367.9333970768851L413.2709919357894 367.9333970768851L413.2709919357894 351.1273281688049L512.6193680330343 351.1273281688049L512.6193680330343 365.42415762185925L433.6366796056505 484.3212597059335L514.7201266465443 484.3212597059335Z " fill="#2b3252" transform="matrix(0.5268960539739145,0,0,0.5268960539739145,0,75.47518849488458)"/><path d="M698.3315155954828 420.6619570746264L755.6096516012692 499.17926963428266L734.965713116425 499.17926963428266L685.6691784907551 432.756112386193L671.4375773858693 445.2290555598669L671.4375773858693 499.17926963428266L653.9051106254773 499.17926963428266L653.9051106254773 360.0829554133341L671.4375773858693 360.0829554133341L671.4375773858693 428.67061473060784Q677.2817329726665 422.04182714373127 683.3423387663822 415.41303955685476Q689.3758882842332 408.7842519699782 695.409437802084 402.1554643831016L695.409437802084 402.1554643831016L733.0176612541592 360.0829554133341L753.4722058079499 360.0829554133341L698.3315155954828 420.6619570746264ZM811.6973114690043 393.01044314079843L811.6973114690043 393.01044314079843Q830.7990422295547 393.01044314079843 839.9440634718578 401.39788865888715Q849.1161409900258 409.75827790111106 849.1161409900258 428.0753766615822L849.1161409900258 428.0753766615822L849.1161409900258 499.17926963428266L836.6431978163521 499.17926963428266L833.3423321608461 484.3794867362358L832.5577001607669 484.3794867362358Q828.0663583672097 490.0342483919795 823.3044538150045 493.8221270130518Q818.5154929869345 497.6100056341241 812.4007746414891 499.36866356533625Q806.259000020179 501.1273214965484 797.4927666399831 501.1273214965484L797.4927666399831 501.1273214965484Q788.1312951907614 501.1273214965484 780.6367067762112 497.82645584104256Q773.142118361661 494.49853390967183 768.8401704991575 487.59918356414727Q764.5652789125188 480.6727769427578 764.5652789125188 470.14788563134977L764.5652789125188 470.14788563134977Q764.5652789125188 454.5634707332237 776.848828155139 446.0948563875405Q789.1053211218943 437.62624204185744 814.619389262403 436.84161004177815L814.619389262403 436.84161004177815L832.3683062297132 436.2463719727525L832.3683062297132 430.023428523848Q832.3683062297132 416.98230355701327 826.7135445739696 411.89572369443044Q821.0587829182259 406.8362001077124 810.7232855378713 406.8362001077124L810.7232855378713 406.8362001077124Q802.5522902267012 406.8362001077124 795.1388706397454 409.27126493554465Q787.7525073286542 411.70632976337686 781.3131136728314 414.8178014878291L781.3131136728314 414.8178014878291L776.0641961550598 401.96607045204803Q782.8823776729898 398.2593606585701 792.2167928463466 395.6349018996843Q801.5782642955683 393.01044314079843 811.6973114690043 393.01044314079843ZM832.1518560227948 448.1511333532655L816.7838913315873 448.71931514642637Q797.3033727089294 449.50394714650565 789.7817280185145 454.96931487119565Q782.2871396039643 460.40762632002094 782.2871396039643 470.3372795624034L782.2871396039643 470.3372795624034Q782.2871396039643 479.10351294259937 787.644282225195 483.2160668740493Q793.0014248464258 487.30156452963445 801.3888703645146 487.30156452963445L801.3888703645146 487.30156452963445Q814.619389262403 487.30156452963445 823.385622642599 479.99637004613777Q832.1518560227948 472.6911755626412 832.1518560227948 457.4855485266223L832.1518560227948 457.4855485266223L832.1518560227948 448.1511333532655ZM931.7189512052673 392.82104920974484L931.7189512052673 392.82104920974484Q950.4148378278458 392.82104920974484 959.9657032081209 401.8849016244536Q969.4895123125314 410.9216977632976 969.4895123125314 431.18684838603446L969.4895123125314 431.18684838603446L969.4895123125314 499.17926963428266L952.5522836211651 499.17926963428266L952.5522836211651 432.35026824822097Q952.5522836211651 419.68793114349353 946.8975219654212 413.46498769458896Q941.2427603096778 407.24204424568444 929.175661273976 407.24204424568444L929.175661273976 407.24204424568444Q911.8325884446376 407.24204424568444 905.203800857761 416.98230355701327Q898.6020695467494 426.7225628683421 898.6020695467494 445.01260535294847L898.6020695467494 445.01260535294847L898.6020695467494 499.17926963428266L881.4483906484645 499.17926963428266L881.4483906484645 394.7691010720106L895.2741476153785 394.7691010720106L897.8174375466699 408.9736459010318L898.7914634778028 408.9736459010318Q902.2817230643623 403.53533445220654 907.4494717545397 399.9368497621878Q912.6172204447168 396.31130879630433 918.8401638936214 394.579707140957Q925.0901636183908 392.82104920974484 931.7189512052673 392.82104920974484ZM1018.9754408692547 351.1273281020845L1018.9754408692547 387.16628755400114Q1018.9754408692547 393.7950751408777 1018.6778218347417 399.5310056242158Q1018.4072590760939 405.2939923834187 1018.0014149381218 408.5948580389246L1018.0014149381218 408.5948580389246L1018.9754408692547 408.5948580389246Q1023.4667826628117 401.96607045204803 1031.258990111875 397.5017849343556Q1039.051197560938 393.01044314079843 1051.3076905276935 393.01044314079843L1051.3076905276935 393.01044314079843Q1070.7882091503511 393.01044314079843 1082.5847454274049 406.53858107319957Q1094.3812817044586 420.0937752814655 1094.3812817044586 446.9606572152142L1094.3812817044586 446.9606572152142Q1094.3812817044586 464.8989681135781 1089.024139083228 476.96606714928Q1083.6669964619969 489.06022246084655 1073.926737150668 495.0937719786975Q1064.1864778393397 501.1273214965484 1051.3076905276935 501.1273214965484L1051.3076905276935 501.1273214965484Q1039.051197560938 501.1273214965484 1031.258990111875 496.6359797029912Q1023.4667826628117 492.1716941852988 1018.9754408692547 485.9216944605295L1018.9754408692547 485.9216944605295L1017.6226270760146 485.9216944605295L1014.1053112135903 499.17926963428266L1001.8488182468348 499.17926963428266L1001.8488182468348 351.1273281020845L1018.9754408692547 351.1273281020845ZM1048.3856127342947 407.24204424568444L1048.3856127342947 407.24204424568444Q1037.292539629726 407.24204424568444 1030.8531459739029 411.40871072886404Q1024.440808593945 415.60243348790834 1021.7081247315996 424.2874980405099Q1018.9754408692547 432.9455063172466 1018.9754408692547 446.39247542205334L1018.9754408692547 446.39247542205334L1018.9754408692547 447.1771074221326Q1018.9754408692547 466.44117583787187 1025.3066094216188 476.66844811476716Q1031.6377779739823 486.8957203916624 1048.7914568722667 486.8957203916624L1048.7914568722667 486.8957203916624Q1062.8066077702347 486.8957203916624 1069.7330143916238 476.58727928717275Q1076.6323647371487 466.2517819068183 1076.6323647371487 446.77126328416057L1076.6323647371487 446.77126328416057Q1076.6323647371487 427.1013507304493 1069.7330143916238 417.1716974880669Q1062.8066077702347 407.24204424568444 1048.3856127342947 407.24204424568444ZM1161.1832268146554 393.01044314079843L1161.1832268146554 393.01044314079843Q1180.2849575752061 393.01044314079843 1189.429978817509 401.39788865888715Q1198.6020563356774 409.75827790111106 1198.6020563356774 428.0753766615822L1198.6020563356774 428.0753766615822L1198.6020563356774 499.17926963428266L1186.1291131620033 499.17926963428266L1182.8011912306324 484.3794867362358L1182.043615506418 484.3794867362358Q1177.5522737128608 490.0342483919795 1172.7903691606557 493.8221270130518Q1168.001408332586 497.6100056341241 1161.8596337112758 499.36866356533625Q1155.7449153658304 501.1273214965484 1146.9786819856345 501.1273214965484L1146.9786819856345 501.1273214965484Q1137.6172105364126 501.1273214965484 1130.1226221218626 497.82645584104256Q1122.6280337073122 494.49853390967183 1118.3260858448089 487.59918356414727Q1114.0511942581702 480.6727769427578 1114.0511942581702 470.14788563134977L1114.0511942581702 470.14788563134977Q1114.0511942581702 454.5634707332237 1126.3076872249253 446.0948563875405Q1138.5912364675455 437.62624204185744 1164.1053046080542 436.84161004177815L1164.1053046080542 436.84161004177815L1181.8271652994995 436.2463719727525L1181.8271652994995 430.023428523848Q1181.8271652994995 416.98230355701327 1176.199459919621 411.89572369443044Q1170.5446982638773 406.8362001077124 1160.209200883523 406.8362001077124L1160.209200883523 406.8362001077124Q1152.0382055723526 406.8362001077124 1144.6247859853966 409.27126493554465Q1137.2384226743056 411.70632976337686 1130.7990290184825 414.8178014878291L1130.7990290184825 414.8178014878291L1125.550111500711 401.96607045204803Q1132.368293018641 398.2593606585701 1141.7027081919978 395.6349018996843Q1151.0641796412197 393.01044314079843 1161.1832268146554 393.01044314079843ZM1181.637771368446 448.1511333532655L1166.2427504013735 448.71931514642637Q1146.762231778716 449.50394714650565 1139.267643364166 454.96931487119565Q1131.7730549496155 460.40762632002094 1131.7730549496155 470.3372795624034L1131.7730549496155 470.3372795624034Q1131.7730549496155 479.10351294259937 1137.1301975708466 483.2160668740493Q1142.4873401920772 487.30156452963445 1150.8747857101657 487.30156452963445L1150.8747857101657 487.30156452963445Q1164.1053046080542 487.30156452963445 1172.87153798825 479.99637004613777Q1181.637771368446 472.6911755626412 1181.637771368446 457.4855485266223L1181.637771368446 457.4855485266223L1181.637771368446 448.1511333532655ZM1281.1778102750536 392.82104920974484L1281.1778102750536 392.82104920974484Q1299.900753173497 392.82104920974484 1309.4245622779072 401.8849016244536Q1318.9754276581825 410.9216977632976 1318.9754276581825 431.18684838603446L1318.9754276581825 431.18684838603446L1318.9754276581825 499.17926963428266L1302.0381989668163 499.17926963428266L1302.0381989668163 432.35026824822097Q1302.0381989668163 419.68793114349353 1296.3834373110726 413.46498769458896Q1290.728675655329 407.24204424568444 1278.6615766196273 407.24204424568444L1278.6615766196273 407.24204424568444Q1261.318503790289 407.24204424568444 1254.6897162034124 416.98230355701327Q1248.0609286165359 426.7225628683421 1248.0609286165359 445.01260535294847L1248.0609286165359 445.01260535294847L1248.0609286165359 499.17926963428266L1230.9343059941157 499.17926963428266L1230.9343059941157 394.7691010720106L1244.7600629610297 394.7691010720106L1247.303352892321 408.9736459010318L1248.277378823454 408.9736459010318Q1251.7676384100137 403.53533445220654 1256.9353871001908 399.9368497621878Q1262.103135790368 396.31130879630433 1268.3260792392725 394.579707140957Q1274.5760789640422 392.82104920974484 1281.1778102750536 392.82104920974484ZM1438.5912232564733 483.5948547361565L1438.5912232564733 499.17926963428266L1342.162656074318 499.17926963428266L1342.162656074318 485.9216944605295L1415.4039948403379 375.66737031146016L1344.4894957986912 375.66737031146016L1344.4894957986912 360.0829554133341L1436.6431713942075 360.0829554133341L1436.6431713942075 373.3405305870872L1363.401832628188 483.5948547361565L1438.5912232564733 483.5948547361565ZM1503.0663286422973 392.82104920974484L1503.0663286422973 392.82104920974484Q1516.513297747104 392.82104920974484 1526.1453319549737 398.6652047965421Q1535.8044224387081 404.5093603833394 1540.9721711288853 415.11542052234194Q1546.1128635431978 425.7485369372092 1546.1128635431978 439.9530817662304L1546.1128635431978 439.9530817662304L1546.1128635431978 450.2885791465849L1474.6301827083903 450.2885791465849Q1475.0089705704972 468.01043983803044 1483.6940351230987 477.2636861837928Q1492.3520433998356 486.51693252955516 1507.936458297962 486.51693252955516L1507.936458297962 486.51693252955516Q1517.8661115403443 486.51693252955516 1525.5771501618128 484.6771057707486Q1533.2611325074167 482.81022273607726 1541.4591840944518 479.3199631495177L1541.4591840944518 479.3199631495177L1541.4591840944518 494.30913997861825Q1533.4505264384702 497.82645584104256 1525.6583189894072 499.4768886687954Q1517.8661115403443 501.1273214965484 1507.1518262978825 501.1273214965484L1507.1518262978825 501.1273214965484Q1492.3520433998356 501.1273214965484 1480.9613512607539 495.0937719786975Q1469.5706591216722 489.06022246084655 1463.2394905693086 477.07429225273916Q1456.9083220169446 465.08836204463177 1456.9083220169446 447.74528921529344L1456.9083220169446 447.74528921529344Q1456.9083220169446 430.61866659287364 1462.6442525002826 418.33511735025337Q1468.4072392594858 406.05156810763316 1478.8239054674345 399.4498367966214Q1489.2405716753833 392.82104920974484 1503.0663286422973 392.82104920974484ZM1502.8769347112438 406.8362001077124L1502.8769347112438 406.8362001077124Q1490.5933854686236 406.8362001077124 1483.5046411920453 414.7366326602347Q1476.3888406396022 422.61000893689214 1475.0089705704972 436.65221611072457L1475.0089705704972 436.65221611072457L1528.2016089206986 436.65221611072457Q1528.2016089206986 427.69658879947497 1525.4689250583538 421.06780121259845Q1522.7362411960085 414.4390136257219 1517.1897046437243 410.6511350046496Q1511.6431680914397 406.8362001077124 1502.8769347112438 406.8362001077124ZM1622.871518171642 392.82104920974484L1622.871518171642 392.82104920974484Q1641.5674047942202 392.82104920974484 1651.1182701744956 401.8849016244536Q1660.6691355547705 410.9216977632976 1660.6691355547705 431.18684838603446L1660.6691355547705 431.18684838603446L1660.6691355547705 499.17926963428266L1643.7319068634042 499.17926963428266L1643.7319068634042 432.35026824822097Q1643.7319068634042 419.68793114349353 1638.0771452076606 413.46498769458896Q1632.422383551917 407.24204424568444 1620.3552845162153 407.24204424568444L1620.3552845162153 407.24204424568444Q1603.012211686877 407.24204424568444 1596.3834241000004 416.98230355701327Q1589.7546365131238 426.7225628683421 1589.7546365131238 445.01260535294847L1589.7546365131238 445.01260535294847L1589.7546365131238 499.17926963428266L1572.628013890704 499.17926963428266L1572.628013890704 394.7691010720106L1586.453770857618 394.7691010720106L1588.9700045130444 408.9736459010318L1589.9440304441773 408.9736459010318Q1593.461346306602 403.53533445220654 1598.6290949967788 399.9368497621878Q1603.796843686956 396.31130879630433 1610.019787135861 394.579707140957Q1616.2427305847655 392.82104920974484 1622.871518171642 392.82104920974484Z " fill="black" transform="matrix(0.5268960539739145,0,0,0.5268960539739145,0,75.47518849488458)"/></g></svg>